<mxfile host="app.diagrams.net" modified="2022-12-30T10:33:21.097Z" agent="5.0 (Windows NT 10.0; Win64; x64) AppleWebKit/537.36 (KHTML, like Gecko) Chrome/108.0.0.0 Safari/537.36" etag="afptaeemeUCY6E3Kq95A" version="20.7.4" type="github">
  <diagram id="R2lEEEUBdFMjLlhIrx00" name="Page-1">
    <mxGraphModel dx="2120" dy="1358" grid="1" gridSize="10" guides="1" tooltips="1" connect="1" arrows="1" fold="1" page="1" pageScale="1" pageWidth="1100" pageHeight="850" math="0" shadow="0" extFonts="Permanent Marker^https://fonts.googleapis.com/css?family=Permanent+Marker">
      <root>
        <mxCell id="0" />
        <mxCell id="1" parent="0" />
        <mxCell id="uNqa70icx-SkNa7gYbGT-13" value="" style="edgeStyle=orthogonalEdgeStyle;rounded=0;orthogonalLoop=1;jettySize=auto;html=1;endArrow=classic;endFill=1;startArrow=none;startFill=0;strokeWidth=3;" parent="1" source="uNqa70icx-SkNa7gYbGT-1" target="uNqa70icx-SkNa7gYbGT-12" edge="1">
          <mxGeometry relative="1" as="geometry" />
        </mxCell>
        <mxCell id="uNqa70icx-SkNa7gYbGT-16" value="" style="edgeStyle=orthogonalEdgeStyle;rounded=0;orthogonalLoop=1;jettySize=auto;html=1;strokeWidth=1;startArrow=none;startFill=0;endArrow=none;endFill=0;" parent="1" source="uNqa70icx-SkNa7gYbGT-1" target="uNqa70icx-SkNa7gYbGT-15" edge="1">
          <mxGeometry relative="1" as="geometry" />
        </mxCell>
        <mxCell id="uNqa70icx-SkNa7gYbGT-1" value="&lt;b&gt;&lt;font style=&quot;font-size: 24px;&quot;&gt;Academicians&lt;/font&gt;&lt;/b&gt;" style="rounded=0;whiteSpace=wrap;html=1;" parent="1" vertex="1">
          <mxGeometry x="390" y="330" width="190" height="60" as="geometry" />
        </mxCell>
        <mxCell id="uNqa70icx-SkNa7gYbGT-2" value="&lt;b&gt;&lt;font style=&quot;font-size: 24px;&quot;&gt;Lectures&lt;/font&gt;&lt;/b&gt;" style="rounded=0;whiteSpace=wrap;html=1;" parent="1" vertex="1">
          <mxGeometry x="425" y="102.5" width="120" height="60" as="geometry" />
        </mxCell>
        <mxCell id="8odl50McERZIscfm2UYv-11" style="edgeStyle=orthogonalEdgeStyle;rounded=0;orthogonalLoop=1;jettySize=auto;html=1;entryX=0.5;entryY=1;entryDx=0;entryDy=0;strokeWidth=1;startArrow=none;startFill=0;endArrow=none;endFill=0;" parent="1" source="uNqa70icx-SkNa7gYbGT-3" target="uNqa70icx-SkNa7gYbGT-96" edge="1">
          <mxGeometry relative="1" as="geometry" />
        </mxCell>
        <mxCell id="uNqa70icx-SkNa7gYbGT-3" value="&lt;font style=&quot;font-size: 24px;&quot;&gt;Students&lt;/font&gt;" style="rounded=0;whiteSpace=wrap;html=1;fontStyle=1" parent="1" vertex="1">
          <mxGeometry x="840" y="532.5" width="120" height="60" as="geometry" />
        </mxCell>
        <mxCell id="uNqa70icx-SkNa7gYbGT-6" value="" style="edgeStyle=orthogonalEdgeStyle;rounded=0;orthogonalLoop=1;jettySize=auto;html=1;endArrow=none;endFill=0;entryX=0;entryY=0.5;entryDx=0;entryDy=0;" parent="1" source="uNqa70icx-SkNa7gYbGT-4" target="uNqa70icx-SkNa7gYbGT-5" edge="1">
          <mxGeometry relative="1" as="geometry">
            <mxPoint x="210.04326923076928" y="132.46153846153834" as="targetPoint" />
          </mxGeometry>
        </mxCell>
        <mxCell id="uNqa70icx-SkNa7gYbGT-4" value="&lt;b style=&quot;font-size: 24px;&quot;&gt;&lt;font style=&quot;font-size: 24px;&quot;&gt;Departments&lt;/font&gt;&lt;/b&gt;" style="rounded=0;whiteSpace=wrap;html=1;fontSize=24;" parent="1" vertex="1">
          <mxGeometry x="20" y="102.5" width="180" height="60" as="geometry" />
        </mxCell>
        <mxCell id="uNqa70icx-SkNa7gYbGT-9" style="edgeStyle=orthogonalEdgeStyle;rounded=0;orthogonalLoop=1;jettySize=auto;html=1;entryX=0;entryY=0.5;entryDx=0;entryDy=0;endArrow=none;endFill=0;strokeWidth=3;startArrow=classic;startFill=1;" parent="1" source="uNqa70icx-SkNa7gYbGT-5" target="uNqa70icx-SkNa7gYbGT-2" edge="1">
          <mxGeometry relative="1" as="geometry" />
        </mxCell>
        <mxCell id="uNqa70icx-SkNa7gYbGT-5" value="&lt;font style=&quot;font-size: 18px;&quot;&gt;belongsTo&lt;/font&gt;" style="rhombus;whiteSpace=wrap;html=1;rounded=0;fontStyle=1;fontSize=18;" parent="1" vertex="1">
          <mxGeometry x="220" y="92.5" width="120" height="80" as="geometry" />
        </mxCell>
        <mxCell id="uNqa70icx-SkNa7gYbGT-20" value="" style="rounded=0;whiteSpace=wrap;html=1;dashed=1;fillColor=none;" parent="1" vertex="1">
          <mxGeometry x="360" y="23.75" width="350" height="476.25" as="geometry" />
        </mxCell>
        <mxCell id="uNqa70icx-SkNa7gYbGT-14" style="edgeStyle=orthogonalEdgeStyle;rounded=0;orthogonalLoop=1;jettySize=auto;html=1;entryX=0.5;entryY=1;entryDx=0;entryDy=0;endArrow=none;endFill=0;exitX=0;exitY=0.5;exitDx=0;exitDy=0;" parent="1" source="uNqa70icx-SkNa7gYbGT-12" target="uNqa70icx-SkNa7gYbGT-4" edge="1">
          <mxGeometry relative="1" as="geometry" />
        </mxCell>
        <mxCell id="uNqa70icx-SkNa7gYbGT-12" value="&lt;font style=&quot;font-size: 18px;&quot;&gt;worksIn&lt;/font&gt;" style="rhombus;whiteSpace=wrap;html=1;rounded=0;fontStyle=1;fontSize=18;" parent="1" vertex="1">
          <mxGeometry x="200" y="320" width="110" height="80" as="geometry" />
        </mxCell>
        <mxCell id="uNqa70icx-SkNa7gYbGT-18" style="edgeStyle=orthogonalEdgeStyle;rounded=0;orthogonalLoop=1;jettySize=auto;html=1;strokeWidth=1;startArrow=none;startFill=0;endArrow=none;endFill=0;entryX=0.5;entryY=1;entryDx=0;entryDy=0;" parent="1" source="uNqa70icx-SkNa7gYbGT-15" target="uNqa70icx-SkNa7gYbGT-2" edge="1">
          <mxGeometry relative="1" as="geometry">
            <mxPoint x="485" y="170" as="targetPoint" />
          </mxGeometry>
        </mxCell>
        <mxCell id="uNqa70icx-SkNa7gYbGT-15" value="&lt;font style=&quot;font-size: 18px;&quot;&gt;gives&lt;/font&gt;" style="rhombus;whiteSpace=wrap;html=1;rounded=0;fontStyle=1;fontSize=18;" parent="1" vertex="1">
          <mxGeometry x="445" y="205" width="80" height="80" as="geometry" />
        </mxCell>
        <mxCell id="uNqa70icx-SkNa7gYbGT-88" style="edgeStyle=orthogonalEdgeStyle;rounded=0;orthogonalLoop=1;jettySize=auto;html=1;entryX=0.25;entryY=1;entryDx=0;entryDy=0;strokeWidth=1;fontSize=14;startArrow=none;startFill=0;endArrow=none;endFill=0;" parent="1" source="uNqa70icx-SkNa7gYbGT-27" target="uNqa70icx-SkNa7gYbGT-3" edge="1">
          <mxGeometry relative="1" as="geometry" />
        </mxCell>
        <mxCell id="uNqa70icx-SkNa7gYbGT-27" value="&lt;u style=&quot;font-size: 16px;&quot;&gt;username&lt;/u&gt;" style="ellipse;whiteSpace=wrap;html=1;fillColor=none;fontSize=16;" parent="1" vertex="1">
          <mxGeometry x="750" y="640" width="95" height="50" as="geometry" />
        </mxCell>
        <mxCell id="8odl50McERZIscfm2UYv-24" value="" style="edgeStyle=orthogonalEdgeStyle;rounded=0;orthogonalLoop=1;jettySize=auto;html=1;strokeWidth=1;fontSize=14;startArrow=none;startFill=0;endArrow=none;endFill=0;" parent="1" source="uNqa70icx-SkNa7gYbGT-29" target="uNqa70icx-SkNa7gYbGT-3" edge="1">
          <mxGeometry relative="1" as="geometry" />
        </mxCell>
        <mxCell id="uNqa70icx-SkNa7gYbGT-29" value="studentEmail" style="ellipse;whiteSpace=wrap;html=1;fillColor=none;fontSize=16;" parent="1" vertex="1">
          <mxGeometry x="860" y="640" width="112.5" height="50" as="geometry" />
        </mxCell>
        <mxCell id="8odl50McERZIscfm2UYv-9" style="edgeStyle=orthogonalEdgeStyle;rounded=0;orthogonalLoop=1;jettySize=auto;html=1;entryX=0.75;entryY=1;entryDx=0;entryDy=0;strokeWidth=1;startArrow=none;startFill=0;endArrow=none;endFill=0;" parent="1" source="uNqa70icx-SkNa7gYbGT-30" target="uNqa70icx-SkNa7gYbGT-3" edge="1">
          <mxGeometry relative="1" as="geometry" />
        </mxCell>
        <mxCell id="uNqa70icx-SkNa7gYbGT-30" value="studentPhone" style="ellipse;whiteSpace=wrap;html=1;fillColor=none;fontSize=16;" parent="1" vertex="1">
          <mxGeometry x="965" y="592.5" width="115" height="50" as="geometry" />
        </mxCell>
        <mxCell id="uNqa70icx-SkNa7gYbGT-35" style="edgeStyle=orthogonalEdgeStyle;rounded=0;orthogonalLoop=1;jettySize=auto;html=1;exitX=0.5;exitY=1;exitDx=0;exitDy=0;strokeWidth=1;startArrow=none;startFill=0;endArrow=none;endFill=0;" parent="1" source="uNqa70icx-SkNa7gYbGT-31" target="uNqa70icx-SkNa7gYbGT-4" edge="1">
          <mxGeometry relative="1" as="geometry" />
        </mxCell>
        <mxCell id="uNqa70icx-SkNa7gYbGT-31" value="&lt;u style=&quot;font-size: 16px;&quot;&gt;deptID&lt;/u&gt;" style="ellipse;whiteSpace=wrap;html=1;fillColor=none;fontSize=16;" parent="1" vertex="1">
          <mxGeometry x="30" y="22.5" width="70" height="50" as="geometry" />
        </mxCell>
        <mxCell id="uNqa70icx-SkNa7gYbGT-34" style="edgeStyle=orthogonalEdgeStyle;rounded=0;orthogonalLoop=1;jettySize=auto;html=1;exitX=0.5;exitY=1;exitDx=0;exitDy=0;entryX=0.606;entryY=-0.022;entryDx=0;entryDy=0;entryPerimeter=0;strokeWidth=1;startArrow=none;startFill=0;endArrow=none;endFill=0;" parent="1" source="uNqa70icx-SkNa7gYbGT-32" target="uNqa70icx-SkNa7gYbGT-4" edge="1">
          <mxGeometry relative="1" as="geometry" />
        </mxCell>
        <mxCell id="uNqa70icx-SkNa7gYbGT-32" value="deptName" style="ellipse;whiteSpace=wrap;html=1;fillColor=none;fontSize=16;" parent="1" vertex="1">
          <mxGeometry x="130" y="22.5" width="90" height="50" as="geometry" />
        </mxCell>
        <mxCell id="uNqa70icx-SkNa7gYbGT-39" style="edgeStyle=orthogonalEdgeStyle;rounded=0;orthogonalLoop=1;jettySize=auto;html=1;exitX=0.5;exitY=1;exitDx=0;exitDy=0;entryX=0.25;entryY=0;entryDx=0;entryDy=0;strokeWidth=1;startArrow=none;startFill=0;endArrow=none;endFill=0;" parent="1" source="uNqa70icx-SkNa7gYbGT-36" target="uNqa70icx-SkNa7gYbGT-2" edge="1">
          <mxGeometry relative="1" as="geometry" />
        </mxCell>
        <mxCell id="uNqa70icx-SkNa7gYbGT-36" value="&lt;u style=&quot;font-size: 16px;&quot;&gt;lectureID&lt;/u&gt;" style="ellipse;whiteSpace=wrap;html=1;fillColor=none;fontSize=16;" parent="1" vertex="1">
          <mxGeometry x="400" y="42.5" width="80" height="50" as="geometry" />
        </mxCell>
        <mxCell id="uNqa70icx-SkNa7gYbGT-40" style="edgeStyle=orthogonalEdgeStyle;rounded=0;orthogonalLoop=1;jettySize=auto;html=1;exitX=0.5;exitY=1;exitDx=0;exitDy=0;entryX=0.75;entryY=0;entryDx=0;entryDy=0;strokeWidth=1;startArrow=none;startFill=0;endArrow=none;endFill=0;" parent="1" source="uNqa70icx-SkNa7gYbGT-37" target="uNqa70icx-SkNa7gYbGT-2" edge="1">
          <mxGeometry relative="1" as="geometry" />
        </mxCell>
        <mxCell id="uNqa70icx-SkNa7gYbGT-37" value="lectureName" style="ellipse;whiteSpace=wrap;html=1;fillColor=none;fontSize=16;" parent="1" vertex="1">
          <mxGeometry x="498" y="42.5" width="105" height="50" as="geometry" />
        </mxCell>
        <mxCell id="uNqa70icx-SkNa7gYbGT-43" style="edgeStyle=orthogonalEdgeStyle;rounded=0;orthogonalLoop=1;jettySize=auto;html=1;entryX=0.404;entryY=1.018;entryDx=0;entryDy=0;entryPerimeter=0;strokeWidth=1;startArrow=none;startFill=0;endArrow=none;endFill=0;" parent="1" source="uNqa70icx-SkNa7gYbGT-41" target="uNqa70icx-SkNa7gYbGT-1" edge="1">
          <mxGeometry relative="1" as="geometry" />
        </mxCell>
        <mxCell id="uNqa70icx-SkNa7gYbGT-41" value="&lt;u style=&quot;font-size: 16px;&quot;&gt;academicID&lt;/u&gt;" style="ellipse;whiteSpace=wrap;html=1;fillColor=none;fontSize=16;" parent="1" vertex="1">
          <mxGeometry x="370" y="422.5" width="105" height="50" as="geometry" />
        </mxCell>
        <mxCell id="uNqa70icx-SkNa7gYbGT-45" value="" style="edgeStyle=orthogonalEdgeStyle;rounded=0;orthogonalLoop=1;jettySize=auto;html=1;strokeWidth=1;startArrow=none;startFill=0;endArrow=none;endFill=0;" parent="1" source="uNqa70icx-SkNa7gYbGT-42" target="uNqa70icx-SkNa7gYbGT-1" edge="1">
          <mxGeometry relative="1" as="geometry" />
        </mxCell>
        <mxCell id="uNqa70icx-SkNa7gYbGT-42" value="academicName" style="ellipse;whiteSpace=wrap;html=1;fillColor=none;fontSize=16;" parent="1" vertex="1">
          <mxGeometry x="488" y="423.75" width="125" height="50" as="geometry" />
        </mxCell>
        <mxCell id="uNqa70icx-SkNa7gYbGT-53" value="&lt;u style=&quot;font-size: 16px;&quot;&gt;commentID&lt;/u&gt;" style="ellipse;whiteSpace=wrap;html=1;fillColor=none;fontSize=16;" parent="1" vertex="1">
          <mxGeometry x="730" y="250" width="100" height="50" as="geometry" />
        </mxCell>
        <mxCell id="uNqa70icx-SkNa7gYbGT-54" value="createdTime" style="ellipse;whiteSpace=wrap;html=1;fillColor=none;fontSize=16;" parent="1" vertex="1">
          <mxGeometry x="980" y="250" width="100" height="50" as="geometry" />
        </mxCell>
        <mxCell id="uNqa70icx-SkNa7gYbGT-55" value="grade" style="ellipse;whiteSpace=wrap;html=1;fillColor=none;fontSize=16;" parent="1" vertex="1">
          <mxGeometry x="940" y="200" width="70" height="50" as="geometry" />
        </mxCell>
        <mxCell id="uNqa70icx-SkNa7gYbGT-56" value="text" style="ellipse;whiteSpace=wrap;html=1;fillColor=none;fontSize=16;" parent="1" vertex="1">
          <mxGeometry x="790" y="200" width="70" height="50" as="geometry" />
        </mxCell>
        <mxCell id="uNqa70icx-SkNa7gYbGT-65" value="" style="endArrow=none;html=1;rounded=0;strokeWidth=1;exitX=1;exitY=1;exitDx=0;exitDy=0;entryX=0.411;entryY=0.022;entryDx=0;entryDy=0;entryPerimeter=0;" parent="1" source="uNqa70icx-SkNa7gYbGT-56" target="uNqa70icx-SkNa7gYbGT-92" edge="1">
          <mxGeometry width="50" height="50" relative="1" as="geometry">
            <mxPoint x="670" y="620" as="sourcePoint" />
            <mxPoint x="837.2413793103449" y="517.2413793103449" as="targetPoint" />
          </mxGeometry>
        </mxCell>
        <mxCell id="uNqa70icx-SkNa7gYbGT-66" value="" style="endArrow=none;html=1;rounded=0;strokeWidth=1;exitX=0;exitY=1;exitDx=0;exitDy=0;entryX=0.75;entryY=0;entryDx=0;entryDy=0;" parent="1" source="uNqa70icx-SkNa7gYbGT-55" target="uNqa70icx-SkNa7gYbGT-92" edge="1">
          <mxGeometry width="50" height="50" relative="1" as="geometry">
            <mxPoint x="670" y="620" as="sourcePoint" />
            <mxPoint x="842.7586206896551" y="517.2413793103449" as="targetPoint" />
          </mxGeometry>
        </mxCell>
        <mxCell id="uNqa70icx-SkNa7gYbGT-67" value="" style="endArrow=none;html=1;rounded=0;strokeWidth=1;entryX=0.911;entryY=-0.033;entryDx=0;entryDy=0;exitX=0;exitY=0.5;exitDx=0;exitDy=0;entryPerimeter=0;" parent="1" source="uNqa70icx-SkNa7gYbGT-54" target="uNqa70icx-SkNa7gYbGT-92" edge="1">
          <mxGeometry width="50" height="50" relative="1" as="geometry">
            <mxPoint x="670" y="620" as="sourcePoint" />
            <mxPoint x="860" y="500" as="targetPoint" />
          </mxGeometry>
        </mxCell>
        <mxCell id="uNqa70icx-SkNa7gYbGT-68" value="" style="endArrow=none;html=1;rounded=0;strokeWidth=1;entryX=0.25;entryY=0;entryDx=0;entryDy=0;exitX=1;exitY=0.5;exitDx=0;exitDy=0;" parent="1" source="uNqa70icx-SkNa7gYbGT-53" target="uNqa70icx-SkNa7gYbGT-92" edge="1">
          <mxGeometry width="50" height="50" relative="1" as="geometry">
            <mxPoint x="670" y="620" as="sourcePoint" />
            <mxPoint x="820" y="500" as="targetPoint" />
          </mxGeometry>
        </mxCell>
        <mxCell id="uNqa70icx-SkNa7gYbGT-72" style="edgeStyle=orthogonalEdgeStyle;rounded=0;orthogonalLoop=1;jettySize=auto;html=1;strokeWidth=1;startArrow=none;startFill=0;endArrow=none;endFill=0;entryX=0.5;entryY=0;entryDx=0;entryDy=0;" parent="1" source="uNqa70icx-SkNa7gYbGT-71" target="uNqa70icx-SkNa7gYbGT-92" edge="1">
          <mxGeometry relative="1" as="geometry">
            <mxPoint x="840" y="520" as="targetPoint" />
          </mxGeometry>
        </mxCell>
        <mxCell id="uNqa70icx-SkNa7gYbGT-71" value="rating" style="ellipse;whiteSpace=wrap;html=1;fillColor=none;fontSize=16;" parent="1" vertex="1">
          <mxGeometry x="865" y="180" width="70" height="50" as="geometry" />
        </mxCell>
        <mxCell id="uNqa70icx-SkNa7gYbGT-80" style="edgeStyle=orthogonalEdgeStyle;rounded=0;orthogonalLoop=1;jettySize=auto;html=1;entryX=1;entryY=0.5;entryDx=0;entryDy=0;strokeWidth=1;fontSize=14;startArrow=none;startFill=0;endArrow=none;endFill=0;" parent="1" source="uNqa70icx-SkNa7gYbGT-73" target="uNqa70icx-SkNa7gYbGT-15" edge="1">
          <mxGeometry relative="1" as="geometry" />
        </mxCell>
        <mxCell id="uNqa70icx-SkNa7gYbGT-73" value="&lt;b&gt;&lt;font style=&quot;font-size: 24px;&quot;&gt;Terms&lt;/font&gt;&lt;/b&gt;" style="rounded=0;whiteSpace=wrap;html=1;strokeWidth=1;fontSize=14;fillColor=none;" parent="1" vertex="1">
          <mxGeometry x="565" y="215" width="120" height="60" as="geometry" />
        </mxCell>
        <mxCell id="uNqa70icx-SkNa7gYbGT-79" style="edgeStyle=orthogonalEdgeStyle;rounded=0;orthogonalLoop=1;jettySize=auto;html=1;strokeWidth=1;fontSize=14;startArrow=none;startFill=0;endArrow=none;endFill=0;entryX=0.75;entryY=0;entryDx=0;entryDy=0;" parent="1" source="uNqa70icx-SkNa7gYbGT-75" target="uNqa70icx-SkNa7gYbGT-73" edge="1">
          <mxGeometry relative="1" as="geometry" />
        </mxCell>
        <mxCell id="uNqa70icx-SkNa7gYbGT-75" value="&lt;u style=&quot;font-size: 16px;&quot;&gt;termName&lt;/u&gt;" style="ellipse;whiteSpace=wrap;html=1;fillColor=none;fontSize=16;" parent="1" vertex="1">
          <mxGeometry x="580" y="145" width="100" height="50" as="geometry" />
        </mxCell>
        <mxCell id="8odl50McERZIscfm2UYv-21" style="edgeStyle=orthogonalEdgeStyle;rounded=0;orthogonalLoop=1;jettySize=auto;html=1;entryX=1;entryY=0.5;entryDx=0;entryDy=0;strokeWidth=3;fontSize=14;startArrow=none;startFill=0;endArrow=classic;endFill=1;" parent="1" source="uNqa70icx-SkNa7gYbGT-92" target="8odl50McERZIscfm2UYv-1" edge="1">
          <mxGeometry relative="1" as="geometry" />
        </mxCell>
        <mxCell id="uNqa70icx-SkNa7gYbGT-92" value="&lt;font style=&quot;font-size: 24px;&quot;&gt;Comments&lt;/font&gt;" style="rounded=0;whiteSpace=wrap;html=1;strokeWidth=1;fontSize=14;fillColor=none;fontStyle=1" parent="1" vertex="1">
          <mxGeometry x="820" y="290" width="160" height="60" as="geometry" />
        </mxCell>
        <mxCell id="uNqa70icx-SkNa7gYbGT-99" style="edgeStyle=orthogonalEdgeStyle;rounded=0;orthogonalLoop=1;jettySize=auto;html=1;exitX=0.5;exitY=0;exitDx=0;exitDy=0;entryX=0.5;entryY=1;entryDx=0;entryDy=0;strokeWidth=3;fontSize=14;startArrow=classic;startFill=1;endArrow=none;endFill=0;" parent="1" source="uNqa70icx-SkNa7gYbGT-96" target="uNqa70icx-SkNa7gYbGT-92" edge="1">
          <mxGeometry relative="1" as="geometry" />
        </mxCell>
        <mxCell id="uNqa70icx-SkNa7gYbGT-96" value="commentedBy" style="rhombus;whiteSpace=wrap;html=1;strokeWidth=1;fontSize=18;fillColor=none;fontStyle=1" parent="1" vertex="1">
          <mxGeometry x="800" y="402.5" width="170" height="92.5" as="geometry" />
        </mxCell>
        <mxCell id="8odl50McERZIscfm2UYv-23" style="edgeStyle=orthogonalEdgeStyle;rounded=0;orthogonalLoop=1;jettySize=auto;html=1;strokeWidth=1;fontSize=14;startArrow=none;startFill=0;endArrow=none;endFill=0;entryX=0.5;entryY=1;entryDx=0;entryDy=0;exitX=0;exitY=0.5;exitDx=0;exitDy=0;" parent="1" source="8odl50McERZIscfm2UYv-1" target="uNqa70icx-SkNa7gYbGT-20" edge="1">
          <mxGeometry relative="1" as="geometry">
            <mxPoint x="530" y="570" as="targetPoint" />
          </mxGeometry>
        </mxCell>
        <mxCell id="8odl50McERZIscfm2UYv-1" value="&lt;font style=&quot;font-size: 18px;&quot;&gt;commentIsRelated&lt;/font&gt;" style="rhombus;whiteSpace=wrap;html=1;fontStyle=1;fontSize=18;" parent="1" vertex="1">
          <mxGeometry x="560" y="540" width="190" height="100" as="geometry" />
        </mxCell>
        <mxCell id="8odl50McERZIscfm2UYv-12" value="&lt;font style=&quot;font-size: 18px;&quot;&gt;likes&lt;/font&gt;" style="rhombus;whiteSpace=wrap;html=1;fontStyle=1;fontSize=18;" parent="1" vertex="1">
          <mxGeometry x="980" y="408.75" width="100" height="80" as="geometry" />
        </mxCell>
        <mxCell id="8odl50McERZIscfm2UYv-16" value="" style="endArrow=none;html=1;rounded=0;strokeWidth=1;entryX=0.5;entryY=0;entryDx=0;entryDy=0;exitX=1;exitY=0.5;exitDx=0;exitDy=0;" parent="1" source="uNqa70icx-SkNa7gYbGT-92" target="8odl50McERZIscfm2UYv-12" edge="1">
          <mxGeometry width="50" height="50" relative="1" as="geometry">
            <mxPoint x="680" y="610" as="sourcePoint" />
            <mxPoint x="730" y="560" as="targetPoint" />
            <Array as="points">
              <mxPoint x="1030" y="320" />
            </Array>
          </mxGeometry>
        </mxCell>
        <mxCell id="8odl50McERZIscfm2UYv-17" value="" style="endArrow=none;html=1;rounded=0;strokeWidth=1;entryX=0.5;entryY=1;entryDx=0;entryDy=0;exitX=1;exitY=0.5;exitDx=0;exitDy=0;" parent="1" source="uNqa70icx-SkNa7gYbGT-3" target="8odl50McERZIscfm2UYv-12" edge="1">
          <mxGeometry width="50" height="50" relative="1" as="geometry">
            <mxPoint x="790" y="540" as="sourcePoint" />
            <mxPoint x="840" y="490" as="targetPoint" />
            <Array as="points">
              <mxPoint x="1030" y="563" />
            </Array>
          </mxGeometry>
        </mxCell>
        <mxCell id="78CuseGarRMgmvl8OcIG-4" value="&lt;p style=&quot;font-size: 14px;&quot;&gt;&lt;font style=&quot;font-size: 14px;&quot;&gt;&lt;strong style=&quot;&quot;&gt;Departments &lt;/strong&gt;(&lt;u style=&quot;&quot;&gt;deptID&lt;/u&gt;, deptName)&lt;/font&gt;&lt;/p&gt;&lt;p style=&quot;font-size: 14px;&quot;&gt;&lt;font style=&quot;font-size: 14px;&quot;&gt;&lt;strong&gt;Lectures&amp;nbsp;&lt;/strong&gt;(&lt;u&gt;lectureID&lt;/u&gt;, lectureName)&lt;/font&gt;&lt;/p&gt;&lt;p style=&quot;font-size: 14px;&quot;&gt;&lt;font style=&quot;font-size: 14px;&quot;&gt;&lt;strong&gt;Academicians&amp;nbsp;&lt;/strong&gt;(&lt;u&gt;academicID&lt;/u&gt;, academicName)&lt;/font&gt;&lt;/p&gt;&lt;p style=&quot;font-size: 14px;&quot;&gt;&lt;font style=&quot;font-size: 14px;&quot;&gt;&lt;strong&gt;Students&amp;nbsp;&lt;/strong&gt;(&lt;u&gt;username&lt;/u&gt;, studentEmail, studentPhone)&lt;/font&gt;&lt;/p&gt;&lt;p style=&quot;font-size: 14px;&quot;&gt;&lt;b&gt;Terms &lt;/b&gt;(termName)&lt;/p&gt;&lt;p style=&quot;font-size: 14px;&quot;&gt;&lt;b style=&quot;border-color: var(--border-color);&quot;&gt;Comments&amp;nbsp;&lt;/b&gt;(&lt;u style=&quot;border-color: var(--border-color);&quot;&gt;commentID&lt;/u&gt;,&amp;nbsp;text, rating, grade, createdTime)&lt;br&gt;&lt;/p&gt;&lt;p style=&quot;font-size: 14px;&quot;&gt;&lt;font style=&quot;font-size: 14px;&quot;&gt;&lt;b style=&quot;background-color: initial;&quot;&gt;belongsTo &lt;/b&gt;&lt;span style=&quot;background-color: initial;&quot;&gt;(&lt;/span&gt;&lt;u style=&quot;background-color: initial;&quot;&gt;deptID&lt;/u&gt;&lt;span style=&quot;background-color: initial;&quot;&gt;, &lt;/span&gt;&lt;u style=&quot;background-color: initial;&quot;&gt;lectureID)&lt;/u&gt;&lt;br&gt;&lt;/font&gt;&lt;/p&gt;&lt;p style=&quot;font-size: 14px;&quot;&gt;&lt;span style=&quot;background-color: initial;&quot;&gt;&lt;font style=&quot;font-size: 14px;&quot;&gt;&lt;b style=&quot;&quot;&gt;worksIn&lt;/b&gt;&amp;nbsp;(&lt;u&gt;deptID&lt;/u&gt;, &lt;u&gt;academicID)&lt;/u&gt;&lt;/font&gt;&lt;/span&gt;&lt;/p&gt;&lt;p style=&quot;font-size: 14px;&quot;&gt;&lt;font style=&quot;font-size: 14px;&quot;&gt;&lt;b&gt;gives&lt;/b&gt;&amp;nbsp;(&lt;u&gt;lectureID&lt;/u&gt;, &lt;u&gt;academicID)&lt;/u&gt;&lt;/font&gt;&lt;/p&gt;&lt;p style=&quot;font-size: 14px;&quot;&gt;&lt;font style=&quot;font-size: 14px;&quot;&gt;&lt;b style=&quot;&quot;&gt;commentIsRelated&lt;/b&gt;&amp;nbsp;(&lt;u&gt;commentID&lt;/u&gt;, lectureID, termName, academicID)&lt;/font&gt;&lt;/p&gt;&lt;p style=&quot;font-size: 14px;&quot;&gt;&lt;font style=&quot;font-size: 14px;&quot;&gt;&lt;b&gt;commentedBy&lt;/b&gt;(&lt;u&gt;commentID&lt;/u&gt;, &lt;u&gt;username&lt;/u&gt;)&lt;/font&gt;&lt;/p&gt;&lt;p style=&quot;font-size: 14px;&quot;&gt;&lt;font style=&quot;font-size: 14px;&quot;&gt;&lt;b&gt;likes&lt;/b&gt;(&lt;u&gt;username&lt;/u&gt;, &lt;u&gt;commentID&lt;/u&gt;)&lt;/font&gt;&lt;/p&gt;&lt;p style=&quot;font-size: 14px;&quot;&gt;&lt;br&gt;&lt;/p&gt;" style="text;whiteSpace=wrap;html=1;strokeWidth=1;" vertex="1" parent="1">
          <mxGeometry x="30" y="408.75" width="530" height="387.5" as="geometry" />
        </mxCell>
      </root>
    </mxGraphModel>
  </diagram>
</mxfile>
